<mxfile host="app.diagrams.net" modified="2024-05-25T00:54:34.831Z" agent="Mozilla/5.0 (Windows NT 10.0; Win64; x64) AppleWebKit/537.36 (KHTML, like Gecko) Chrome/125.0.0.0 Safari/537.36" etag="B99C9Zls1xDRiez9p_nK" version="24.4.8" type="device">
  <diagram name="Página-1" id="BlWC9XxURbaLx75ePdqJ">
    <mxGraphModel dx="1195" dy="615" grid="1" gridSize="10" guides="1" tooltips="1" connect="1" arrows="1" fold="1" page="1" pageScale="1" pageWidth="1169" pageHeight="827" math="0" shadow="0">
      <root>
        <mxCell id="0" />
        <mxCell id="1" parent="0" />
        <mxCell id="ifySpuM26JYDNwtk_knL-61" value="" style="rounded=0;whiteSpace=wrap;html=1;" vertex="1" parent="1">
          <mxGeometry x="360" y="220" width="390" height="210" as="geometry" />
        </mxCell>
        <mxCell id="ifySpuM26JYDNwtk_knL-2" value="" style="edgeStyle=orthogonalEdgeStyle;rounded=0;orthogonalLoop=1;jettySize=auto;html=1;" edge="1" parent="1" source="ifySpuM26JYDNwtk_knL-3">
          <mxGeometry relative="1" as="geometry">
            <mxPoint x="630" y="340" as="targetPoint" />
          </mxGeometry>
        </mxCell>
        <mxCell id="ifySpuM26JYDNwtk_knL-3" value="&lt;span style=&quot;font-size: 36px;&quot;&gt;∑&lt;/span&gt;" style="ellipse;whiteSpace=wrap;html=1;aspect=fixed;spacingBottom=6;" vertex="1" parent="1">
          <mxGeometry x="510" y="300" width="80" height="80" as="geometry" />
        </mxCell>
        <mxCell id="ifySpuM26JYDNwtk_knL-5" value="" style="endArrow=classic;html=1;rounded=0;exitX=1;exitY=0.5;exitDx=0;exitDy=0;" edge="1" parent="1">
          <mxGeometry width="50" height="50" relative="1" as="geometry">
            <mxPoint x="690" y="340" as="sourcePoint" />
            <mxPoint x="725" y="340" as="targetPoint" />
          </mxGeometry>
        </mxCell>
        <mxCell id="ifySpuM26JYDNwtk_knL-9" value="x&lt;sub&gt;1&lt;/sub&gt;" style="text;html=1;align=center;verticalAlign=middle;resizable=0;points=[];autosize=1;strokeColor=none;fillColor=none;" vertex="1" parent="1">
          <mxGeometry x="370" y="275" width="40" height="30" as="geometry" />
        </mxCell>
        <mxCell id="ifySpuM26JYDNwtk_knL-10" value="x&lt;sub&gt;2&lt;/sub&gt;" style="text;html=1;align=center;verticalAlign=middle;resizable=0;points=[];autosize=1;strokeColor=none;fillColor=none;" vertex="1" parent="1">
          <mxGeometry x="370" y="325" width="40" height="30" as="geometry" />
        </mxCell>
        <mxCell id="ifySpuM26JYDNwtk_knL-11" value="x&lt;sub&gt;3&lt;/sub&gt;" style="text;html=1;align=center;verticalAlign=middle;resizable=0;points=[];autosize=1;strokeColor=none;fillColor=none;" vertex="1" parent="1">
          <mxGeometry x="370" y="375" width="40" height="30" as="geometry" />
        </mxCell>
        <mxCell id="ifySpuM26JYDNwtk_knL-15" value="" style="endArrow=classic;html=1;rounded=0;entryX=0.5;entryY=0;entryDx=0;entryDy=0;" edge="1" parent="1" target="ifySpuM26JYDNwtk_knL-3">
          <mxGeometry width="50" height="50" relative="1" as="geometry">
            <mxPoint x="550" y="260" as="sourcePoint" />
            <mxPoint x="580" y="220" as="targetPoint" />
          </mxGeometry>
        </mxCell>
        <mxCell id="ifySpuM26JYDNwtk_knL-16" value="&lt;span style=&quot;color: rgb(32, 33, 36); font-family: &amp;quot;Google Sans&amp;quot;, arial, sans-serif; font-size: 20px; text-align: left; text-wrap: wrap; background-color: rgb(255, 255, 255);&quot;&gt;-θ&lt;/span&gt;" style="text;html=1;align=center;verticalAlign=middle;resizable=0;points=[];autosize=1;strokeColor=none;fillColor=none;" vertex="1" parent="1">
          <mxGeometry x="530" y="223" width="40" height="40" as="geometry" />
        </mxCell>
        <mxCell id="ifySpuM26JYDNwtk_knL-17" value="y" style="text;html=1;align=center;verticalAlign=middle;resizable=0;points=[];autosize=1;strokeColor=none;fillColor=none;" vertex="1" parent="1">
          <mxGeometry x="723" y="324" width="30" height="30" as="geometry" />
        </mxCell>
        <mxCell id="ifySpuM26JYDNwtk_knL-20" value="&lt;span style=&quot;text-wrap: nowrap;&quot;&gt;w&lt;/span&gt;&lt;sub style=&quot;text-wrap: nowrap;&quot;&gt;1&lt;/sub&gt;" style="ellipse;whiteSpace=wrap;html=1;aspect=fixed;spacingBottom=1;" vertex="1" parent="1">
          <mxGeometry x="440" y="270" width="40" height="40" as="geometry" />
        </mxCell>
        <mxCell id="ifySpuM26JYDNwtk_knL-23" value="&lt;span style=&quot;text-wrap: nowrap;&quot;&gt;w&lt;/span&gt;&lt;sub style=&quot;text-wrap: nowrap;&quot;&gt;2&lt;/sub&gt;" style="ellipse;whiteSpace=wrap;html=1;aspect=fixed;spacingBottom=6;" vertex="1" parent="1">
          <mxGeometry x="440" y="320" width="40" height="40" as="geometry" />
        </mxCell>
        <mxCell id="ifySpuM26JYDNwtk_knL-24" value="&lt;span style=&quot;text-wrap: nowrap;&quot;&gt;w&lt;/span&gt;&lt;sub style=&quot;text-wrap: nowrap;&quot;&gt;3&lt;/sub&gt;" style="ellipse;whiteSpace=wrap;html=1;aspect=fixed;spacingBottom=6;" vertex="1" parent="1">
          <mxGeometry x="440" y="370" width="40" height="40" as="geometry" />
        </mxCell>
        <mxCell id="ifySpuM26JYDNwtk_knL-27" value="" style="endArrow=classic;html=1;rounded=0;entryX=0;entryY=0.5;entryDx=0;entryDy=0;" edge="1" parent="1" target="ifySpuM26JYDNwtk_knL-20">
          <mxGeometry width="50" height="50" relative="1" as="geometry">
            <mxPoint x="400" y="290" as="sourcePoint" />
            <mxPoint x="450" y="240" as="targetPoint" />
          </mxGeometry>
        </mxCell>
        <mxCell id="ifySpuM26JYDNwtk_knL-30" value="" style="endArrow=classic;html=1;rounded=0;entryX=0;entryY=0.5;entryDx=0;entryDy=0;" edge="1" parent="1">
          <mxGeometry width="50" height="50" relative="1" as="geometry">
            <mxPoint x="400" y="341" as="sourcePoint" />
            <mxPoint x="440" y="341" as="targetPoint" />
          </mxGeometry>
        </mxCell>
        <mxCell id="ifySpuM26JYDNwtk_knL-31" value="" style="endArrow=classic;html=1;rounded=0;entryX=0;entryY=0.5;entryDx=0;entryDy=0;" edge="1" parent="1">
          <mxGeometry width="50" height="50" relative="1" as="geometry">
            <mxPoint x="400" y="390" as="sourcePoint" />
            <mxPoint x="440" y="390" as="targetPoint" />
          </mxGeometry>
        </mxCell>
        <mxCell id="ifySpuM26JYDNwtk_knL-32" value="" style="endArrow=classic;html=1;rounded=0;entryX=0;entryY=0;entryDx=0;entryDy=0;exitX=1;exitY=0.5;exitDx=0;exitDy=0;" edge="1" parent="1" source="ifySpuM26JYDNwtk_knL-20" target="ifySpuM26JYDNwtk_knL-3">
          <mxGeometry width="50" height="50" relative="1" as="geometry">
            <mxPoint x="480" y="260" as="sourcePoint" />
            <mxPoint x="510" y="220" as="targetPoint" />
          </mxGeometry>
        </mxCell>
        <mxCell id="ifySpuM26JYDNwtk_knL-33" value="" style="endArrow=classic;html=1;rounded=0;entryX=0;entryY=0.5;entryDx=0;entryDy=0;exitX=1;exitY=0.5;exitDx=0;exitDy=0;" edge="1" parent="1" source="ifySpuM26JYDNwtk_knL-23" target="ifySpuM26JYDNwtk_knL-3">
          <mxGeometry width="50" height="50" relative="1" as="geometry">
            <mxPoint x="490" y="300" as="sourcePoint" />
            <mxPoint x="532" y="322" as="targetPoint" />
          </mxGeometry>
        </mxCell>
        <mxCell id="ifySpuM26JYDNwtk_knL-34" value="" style="endArrow=classic;html=1;rounded=0;entryX=0;entryY=1;entryDx=0;entryDy=0;exitX=1;exitY=0.5;exitDx=0;exitDy=0;" edge="1" parent="1" source="ifySpuM26JYDNwtk_knL-24" target="ifySpuM26JYDNwtk_knL-3">
          <mxGeometry width="50" height="50" relative="1" as="geometry">
            <mxPoint x="488" y="392" as="sourcePoint" />
            <mxPoint x="530" y="414" as="targetPoint" />
          </mxGeometry>
        </mxCell>
        <mxCell id="ifySpuM26JYDNwtk_knL-57" value="" style="whiteSpace=wrap;html=1;spacingBottom=6;" vertex="1" parent="1">
          <mxGeometry x="630" y="309" width="60" height="60" as="geometry" />
        </mxCell>
        <mxCell id="ifySpuM26JYDNwtk_knL-58" value="" style="endArrow=none;html=1;rounded=0;exitX=0.5;exitY=0.25;exitDx=0;exitDy=0;exitPerimeter=0;" edge="1" parent="1" source="ifySpuM26JYDNwtk_knL-57">
          <mxGeometry width="50" height="50" relative="1" as="geometry">
            <mxPoint x="660" y="324" as="sourcePoint" />
            <mxPoint x="677" y="323.76" as="targetPoint" />
          </mxGeometry>
        </mxCell>
        <mxCell id="ifySpuM26JYDNwtk_knL-59" value="" style="endArrow=none;html=1;rounded=0;" edge="1" parent="1">
          <mxGeometry width="50" height="50" relative="1" as="geometry">
            <mxPoint x="660" y="349" as="sourcePoint" />
            <mxPoint x="660" y="324" as="targetPoint" />
          </mxGeometry>
        </mxCell>
        <mxCell id="ifySpuM26JYDNwtk_knL-60" value="" style="endArrow=none;html=1;rounded=0;exitX=0.5;exitY=0.25;exitDx=0;exitDy=0;exitPerimeter=0;" edge="1" parent="1">
          <mxGeometry width="50" height="50" relative="1" as="geometry">
            <mxPoint x="643" y="349.24" as="sourcePoint" />
            <mxPoint x="660" y="349" as="targetPoint" />
          </mxGeometry>
        </mxCell>
      </root>
    </mxGraphModel>
  </diagram>
</mxfile>
